<?xml version="1.0" encoding="UTF-8" standalone="no"?>
<!-- Created with Inkscape (http://www.inkscape.org/) -->
<svg id="svg3880" xmlns:rdf="http://www.w3.org/1999/02/22-rdf-syntax-ns#" xmlns="http://www.w3.org/2000/svg" height="108.75" viewBox="0 0 143.75 108.75" width="143.75" version="1.1" xmlns:cc="http://creativecommons.org/ns#" xmlns:dc="http://purl.org/dc/elements/1.1/">
 <metadata id="metadata3886">
  <rdf:RDF>
   <cc:Work rdf:about="">
    <dc:format>image/svg+xml</dc:format>
    <dc:type rdf:resource="http://purl.org/dc/dcmitype/StillImage"/>
    <dc:title/>
   </cc:Work>
  </rdf:RDF>
 </metadata>
 <g id="g3998" transform="matrix(.0042962 .96345 -.96345 .0042962 135.21 .16894)"></g>
 <g id="layer4">
  <path id="path3462" d="m96.641 2.9657c28.149 1.101 27.459 97.814 0.825 97.194l-74.45-9.973c-25.51-7.211-25.922-69.313-0.534-76.178z" fill="#07a23b"/>
  <g fill="#fff">
   <path id="path3505" d="m85.419 8.8789-63.171 8.9751c-4.2681 3.3648-6.9679 8.2192-7.5687 9.3296l65.017-6.963c1.3226-3.3762 4.3015-9.5395 5.7202-11.342z"/>
   <path id="path3551" d="m78.042 28.008-65.329 5.5498c-2.494 4.757-3.169 10.65-3.3147 15.17l66.739-1.5147c0.0074-3.2891 0.55003-13.318 1.9052-19.206z"/>
   <path id="path3553" d="m85.595 94.456-63.251-8.403c-4.2975-3.326-7.0398-8.1557-7.6503-9.2607l65.082 6.3737c1.3522 3.3644 4.3852 9.4999 5.8189 11.29z"/>
   <path id="path3555" d="m78.051 75.394-65.375-4.957c-2.536-4.734-3.2627-10.621-3.4481-15.14l66.749 0.9101c0.03629 3.2889 0.66694 13.312 2.0737 19.188z"/>
  </g>
 </g>
 <g id="layer5">
  <path id="path4031" d="m100.36 10.836c-13.099 0.685-19.878 48.223-11.732 71.195l21.342-4.561c8.39-24.044 1.28-66.986-9.61-66.634z" fill="#03621e"/>
 </g>
 <g id="layer6" fill="#fdd600">
  <path id="path4136" d="m99.087 78.942a6.1255 6.1255 0 0 1 -6.1238 6.1255 6.1255 6.1255 0 0 1 -6.1273 -6.122 6.1255 6.1255 0 0 1 6.1202 -6.1291 6.1255 6.1255 0 0 1 6.1309 6.1184"/>
  <path id="path4174" d="m112.96 75.406a5.5952 5.5952 0 0 1 -5.5936 5.5952 5.5952 5.5952 0 0 1 -5.5968 -5.592 5.5952 5.5952 0 0 1 5.5903 -5.5985 5.5952 5.5952 0 0 1 5.6001 5.5887"/>
  <path id="path4176" d="m120.39 74.743a4.9323 4.9323 0 0 1 -4.9309 4.9323 4.9323 4.9323 0 0 1 -4.9337 -4.9294 4.9323 4.9323 0 0 1 4.928 -4.9352 4.9323 4.9323 0 0 1 4.9366 4.9266"/>
  <path id="path4178" d="m124.1 78.942a3.7391 3.7391 0 0 1 -3.738 3.7391 3.7391 3.7391 0 0 1 -3.7402 -3.7369 3.7391 3.7391 0 0 1 3.7358 -3.7412 3.7391 3.7391 0 0 1 3.7423 3.7347"/>
  <path id="path4180" d="m131.08 83.14a5.0207 5.0207 0 0 1 -5.0192 5.0207 5.0207 5.0207 0 0 1 -5.0222 -5.0178 5.0207 5.0207 0 0 1 5.0163 -5.0236 5.0207 5.0207 0 0 1 5.0251 5.0148"/>
  <path id="path4182" d="m135.86 91.67a5.5952 5.5952 0 0 1 -5.5936 5.5952 5.5952 5.5952 0 0 1 -5.5968 -5.592 5.5952 5.5952 0 0 1 5.5903 -5.5985 5.5952 5.5952 0 0 1 5.6001 5.5887"/>
  <path id="path4184" d="m140.36 97.327a3.9158 3.9158 0 0 1 -3.9147 3.9158 3.9158 3.9158 0 0 1 -3.917 -3.9136 3.9158 3.9158 0 0 1 3.9124 -3.9181 3.9158 3.9158 0 0 1 3.9192 3.9113"/>
  <path id="path4186" d="m140.45 99.625a4.181 4.181 0 0 1 -4.1798 4.181 4.181 4.181 0 0 1 -4.1822 -4.1786 4.181 4.181 0 0 1 4.1773 -4.1834 4.181 4.181 0 0 1 4.1846 4.1761"/>
  <path id="path4188" d="m134.44 100.55a4.8439 4.8439 0 0 1 -4.8425 4.8439 4.8439 4.8439 0 0 1 -4.8453 -4.8411 4.8439 4.8439 0 0 1 4.8397 -4.8467 4.8439 4.8439 0 0 1 4.8481 4.8383"/>
  <path id="path4190" d="m126.84 100.24a4.0042 4.0042 0 0 1 -4.0031 4.0042 4.0042 4.0042 0 0 1 -4.0054 -4.0019 4.0042 4.0042 0 0 1 4.0007 -4.0065 4.0042 4.0042 0 0 1 4.0077 3.9996"/>
  <path id="path4192" d="m125.43 97.636a5.1091 5.1091 0 0 1 -5.1076 5.1091 5.1091 5.1091 0 0 1 -5.1106 -5.1061 5.1091 5.1091 0 0 1 5.1046 -5.112 5.1091 5.1091 0 0 1 5.1135 5.1031"/>
  <path id="path4194" d="m117.12 98.078a5.1091 5.1091 0 0 1 -5.1076 5.1091 5.1091 5.1091 0 0 1 -5.1106 -5.1061 5.1091 5.1091 0 0 1 5.1046 -5.112 5.1091 5.1091 0 0 1 5.1135 5.1031"/>
  <path id="path4196" d="m110.49 97.459a3.6065 3.6065 0 0 1 -3.6054 3.6065 3.6065 3.6065 0 0 1 -3.6075 -3.6044 3.6065 3.6065 0 0 1 3.6033 -3.6086 3.6065 3.6065 0 0 1 3.6096 3.6023"/>
  <path id="path4198" d="m105.72 96.929a4.0484 4.0484 0 0 1 -4.0472 4.0484 4.0484 4.0484 0 0 1 -4.0496 -4.0461 4.0484 4.0484 0 0 1 4.0449 -4.0508 4.0484 4.0484 0 0 1 4.052 4.0437"/>
  <path id="path4200" d="m94.71 80.271c2.1568-1.7217 5.4319-2.8842 9.5881-3.6062l11.579 0.61872 15.203 13.612-2.0329 9.6343-27.047-2.5633-4.7288 1.4584-11.183-17.899z"/>
 </g>
 <g id="layer7">
  <path id="path4203" d="m85.913 71.627c3.2472 12.036 7.0507 22.57 12.64 28.284l-9.9879-1.591s-5.5685-25.456-4.8614-25.544c0.70711-0.08839 2.2097-1.149 2.2097-1.149z" fill="#09a339"/>
 </g>
</svg>
