<svg xmlns:inkscape="http://www.inkscape.org/namespaces/inkscape" xmlns:sodipodi="http://sodipodi.sourceforge.net/DTD/sodipodi-0.dtd" xmlns="http://www.w3.org/2000/svg" xmlns:svg="http://www.w3.org/2000/svg" version="1.0" id="Layer_1" x="0px" y="0px" style="enable-background:new 0 0 898 630.4;" xml:space="preserve" sodipodi:docname="mx_player.svg" inkscape:version="1.4 (e7c3feb1, 2024-10-09)" viewBox="74 224 182.4 182.4"><defs id="defs10"/><sodipodi:namedview id="namedview10" pagecolor="#ffffff" bordercolor="#000000" borderopacity="0.25" inkscape:showpageshadow="2" inkscape:pageopacity="0.0" inkscape:pagecheckerboard="0" inkscape:deskcolor="#d1d1d1" inkscape:zoom="0.41160677" inkscape:cx="170.06523" inkscape:cy="99.609634" inkscape:window-width="1472" inkscape:window-height="843" inkscape:window-x="0" inkscape:window-y="34" inkscape:window-maximized="1" inkscape:current-layer="Layer_1"/>
<style type="text/css" id="style1">
	.st0{fill:#3B8BEF;}
	.st1{fill:#010101;}
	.st2{fill:#020202;}
	.st3{fill:#040303;}
	.st4{fill:#040404;}
	.st5{fill:#060606;}
	.st6{fill:#FFFFFF;}
</style>
<path class="st0" d="M256.4,315.3c0,50.3-40.8,91.1-91.1,91.1c-0.1,0-0.2,0-0.4,0c-51.2-0.2-91.2-42.1-90.9-91.8  c0.3-49.3,40.4-90.8,91.6-90.6C215.9,224.2,256.5,265.1,256.4,315.3z M137.2,317.5v37.8c0,0.5,0,1,0,1.5c0.1,0.9,0.8,1.5,1.7,1.5  c0,0,0.1,0,0.1,0c0.5-0.1,0.9-0.3,1.3-0.5l8.8-5l57.8-33.1c0.4-0.2,0.8-0.5,1.2-0.8c0.8-0.6,0.9-1.6,0.4-2.4  c-0.1-0.1-0.2-0.3-0.4-0.4c-0.3-0.2-0.6-0.4-0.9-0.5l-66.4-38c-0.5-0.3-0.9-0.5-1.4-0.8c-0.8-0.4-1.8-0.1-2.2,0.8  c-0.1,0.2-0.2,0.4-0.2,0.7c0,0.5,0,1,0,1.5L137.2,317.5z" id="path1"/>








<path class="st6" d="M137.2,317.5v-37.9c0-0.5,0-1,0-1.5c0.1-0.9,0.9-1.6,1.8-1.5c0.2,0,0.4,0.1,0.6,0.1c0.5,0.2,1,0.5,1.4,0.8  l66.4,38c0.3,0.2,0.6,0.3,0.9,0.5c0.8,0.6,0.9,1.6,0.4,2.4c-0.1,0.1-0.2,0.3-0.4,0.4c-0.4,0.3-0.8,0.6-1.2,0.8l-57.8,33.1l-8.8,5  c-0.4,0.3-0.9,0.5-1.4,0.6c-0.9,0.1-1.7-0.5-1.8-1.3c0,0,0-0.1,0-0.1c0-0.5,0-1,0-1.5L137.2,317.5z" id="path10"/>
</svg>